<svg class="screen1__search" xmlns="http://www.w3.org/2000/svg" >
<symbol id="screen1__search" viewBox="0 0 24 24">
    <g> 
        <path fill-rule="evenodd"
        d="M19.993,19.980 L18.949,21.027 L13.182,15.243 C12.850,15.542 12.486,15.809 12.088,16.041 C11.690,16.274 11.276,16.473 10.845,16.639 C10.414,16.806 9.958,16.931 9.478,17.013 C8.997,17.096 8.525,17.138 8.061,17.138 C6.934,17.138 5.881,16.922 4.904,16.490 C3.926,16.058 3.072,15.476 2.344,14.745 C1.614,14.014 1.043,13.158 0.629,12.177 C0.214,11.197 0.007,10.158 0.007,9.061 C0.007,7.931 0.214,6.876 0.629,5.895 C1.043,4.915 1.614,4.059 2.344,3.327 C3.072,2.596 3.926,2.023 4.904,1.607 C5.881,1.192 6.934,0.984 8.061,0.984 C9.155,0.984 10.190,1.192 11.168,1.607 C12.146,2.023 12.999,2.596 13.729,3.327 C14.457,4.059 15.038,4.915 15.469,5.895 C15.899,6.876 16.115,7.931 16.115,9.061 C16.115,9.527 16.073,10.000 15.991,10.482 C15.908,10.964 15.783,11.421 15.618,11.853 C15.452,12.285 15.253,12.700 15.021,13.099 C14.789,13.498 14.524,13.864 14.226,14.196 L19.993,19.980 L19.993,19.980 ZM0.852,9.061 C0.852,10.058 1.034,10.989 1.399,11.853 C1.763,12.717 2.277,13.482 2.940,14.146 C3.603,14.812 4.374,15.335 5.252,15.717 C6.130,16.099 7.067,16.290 8.061,16.290 C9.055,16.290 9.983,16.099 10.845,15.717 C11.707,15.335 12.469,14.812 13.132,14.146 C13.795,13.482 14.317,12.717 14.698,11.853 C15.079,10.989 15.270,10.058 15.270,9.061 C15.270,8.064 15.079,7.125 14.698,6.244 C14.317,5.364 13.795,4.591 13.132,3.926 C12.469,3.261 11.707,2.746 10.845,2.380 C9.983,2.015 9.055,1.831 8.061,1.831 C7.067,1.831 6.130,2.015 5.252,2.380 C4.374,2.746 3.603,3.261 2.940,3.926 C2.277,4.591 1.763,5.364 1.399,6.244 C1.034,7.125 0.852,8.064 0.852,9.061 L0.852,9.061 Z"/>
    </g>
</symbol>
<symbol id="screen1__scrollicon" viewBox="0 0 24 24">
    <g>
        <path d="M0 7.33l2.829-2.83 9.175 9.339 9.167-9.339 2.829 2.83-11.996 12.17z"/>
    </g>
</symbol>
<symbol id="header__bars" viewBox="0 0 24 24">
    <g>
        <path d="M12 0c-6.627 0-12 5.373-12 12s5.373 12 12 12 12-5.373 12-12-5.373-12-12-12zm6 17h-12v-2h12v2zm0-4h-12v-2h12v2zm0-4h-12v-2h12v2z"/>
    </g>
</symbol>
<symbol id="screen4__search" viewBox="0 0 22 24">
    <g>
        <path fill-rule="evenodd"
        d="M19.993,19.980 L18.949,21.027 L13.182,15.243 C12.850,15.542 12.486,15.809 12.088,16.041 C11.690,16.274 11.276,16.473 10.845,16.639 C10.414,16.806 9.958,16.931 9.478,17.013 C8.997,17.096 8.525,17.138 8.061,17.138 C6.934,17.138 5.881,16.922 4.904,16.490 C3.926,16.058 3.072,15.476 2.344,14.745 C1.614,14.014 1.043,13.158 0.629,12.177 C0.214,11.197 0.007,10.158 0.007,9.061 C0.007,7.931 0.214,6.876 0.629,5.895 C1.043,4.915 1.614,4.059 2.344,3.327 C3.072,2.596 3.926,2.023 4.904,1.607 C5.881,1.192 6.934,0.984 8.061,0.984 C9.155,0.984 10.190,1.192 11.168,1.607 C12.146,2.023 12.999,2.596 13.729,3.327 C14.457,4.059 15.038,4.915 15.469,5.895 C15.899,6.876 16.115,7.931 16.115,9.061 C16.115,9.527 16.073,10.000 15.991,10.482 C15.908,10.964 15.783,11.421 15.618,11.853 C15.452,12.285 15.253,12.700 15.021,13.099 C14.789,13.498 14.524,13.864 14.226,14.196 L19.993,19.980 L19.993,19.980 ZM0.852,9.061 C0.852,10.058 1.034,10.989 1.399,11.853 C1.763,12.717 2.277,13.482 2.940,14.146 C3.603,14.812 4.374,15.335 5.252,15.717 C6.130,16.099 7.067,16.290 8.061,16.290 C9.055,16.290 9.983,16.099 10.845,15.717 C11.707,15.335 12.469,14.812 13.132,14.146 C13.795,13.482 14.317,12.717 14.698,11.853 C15.079,10.989 15.270,10.058 15.270,9.061 C15.270,8.064 15.079,7.125 14.698,6.244 C14.317,5.364 13.795,4.591 13.132,3.926 C12.469,3.261 11.707,2.746 10.845,2.380 C9.983,2.015 9.055,1.831 8.061,1.831 C7.067,1.831 6.130,2.015 5.252,2.380 C4.374,2.746 3.603,3.261 2.940,3.926 C2.277,4.591 1.763,5.364 1.399,6.244 C1.034,7.125 0.852,8.064 0.852,9.061 L0.852,9.061 Z"/>
    </g>
</symbol>
<symbol id="screen4__mark" viewBox="0 0 24 24">
    <g>
        <path d="M12 2c5.514 0 10 4.486 10 10s-4.486 10-10 10-10-4.486-10-10 4.486-10 10-10zm0-2c-6.627 0-12 5.373-12 12s5.373 12 12 12 12-5.373 12-12-5.373-12-12-12zm4.393 7.5l-5.643 5.784-2.644-2.506-1.856 1.858 4.5 4.364 7.5-7.643-1.857-1.857z"/>
    </g>
</symbol>
<symbol id="screen4__finger-up" viewBox="0 0 24 24">
    <g>
        <path d="M15.43 8.814c.808-3.283 1.252-8.814-2.197-8.814-1.861 0-2.35 1.668-2.833 3.329-1.971 6.788-5.314 7.342-8.4 7.743v9.928c3.503 0 5.584.729 8.169 1.842 1.257.541 3.053 1.158 5.336 1.158 2.538 0 4.295-.997 5.009-3.686.5-1.877 1.486-7.25 1.486-8.25 0-1.649-1.168-2.446-2.594-2.507-1.21-.051-2.87-.277-3.976-.743zm3.718 4.321l-1.394.167s-.609 1.109.141 1.115c0 0 .201.01 1.069-.027 1.082-.046 1.051 1.469.004 1.563l-1.761.099c-.734.094-.656 1.203.141 1.172 0 0 .686-.017 1.143-.041 1.068-.056 1.016 1.429.04 1.551-.424.053-1.745.115-1.745.115-.811.072-.706 1.235.109 1.141l.771-.031c.822-.074 1.003.825-.292 1.661-1.567.881-4.685.131-6.416-.614-2.238-.965-4.437-1.934-6.958-2.006v-6c3.263-.749 6.329-2.254 8.321-9.113.898-3.092 1.679-1.931 1.679.574 0 2.071-.49 3.786-.921 5.533 1.061.543 3.371 1.402 6.12 1.556 1.055.059 1.025 1.455-.051 1.585z"/>
    </g>
</symbol>
<symbol id="footer__icon1" viewBox="0 0 24 24">
    <g>
        <path d="M9 8h-3v4h3v12h5v-12h3.642l.358-4h-4v-1.667c0-.955.192-1.333 1.115-1.333h2.885v-5h-3.808c-3.596 0-5.192 1.583-5.192 4.615v3.385z"/>
    </g>
</symbol>
<symbol id="footer__icon2" viewBox="0 0 24 24">
     <g>
        <path d="M24 4.557c-.883.392-1.832.656-2.828.775 1.017-.609 1.798-1.574 2.165-2.724-.951.564-2.005.974-3.127 1.195-.897-.957-2.178-1.555-3.594-1.555-3.179 0-5.515 2.966-4.797 6.045-4.091-.205-7.719-2.165-10.148-5.144-1.29 2.213-.669 5.108 1.523 6.574-.806-.026-1.566-.247-2.229-.616-.054 2.281 1.581 4.415 3.949 4.89-.693.188-1.452.232-2.224.084.626 1.956 2.444 3.379 4.6 3.419-2.07 1.623-4.678 2.348-7.29 2.04 2.179 1.397 4.768 2.212 7.548 2.212 9.142 0 14.307-7.721 13.995-14.646.962-.695 1.797-1.562 2.457-2.549z"/>
    </g>
</symbol>
<symbol id="footer__icon3" viewBox="0 0 24 24">
     <g>
        <path d="M4.98 3.5c0 1.381-1.11 2.5-2.48 2.5s-2.48-1.119-2.48-2.5c0-1.38 1.11-2.5 2.48-2.5s2.48 1.12 2.48 2.5zm.02 4.5h-5v16h5v-16zm7.982 0h-4.968v16h4.969v-8.399c0-4.67 6.029-5.052 6.029 0v8.399h4.988v-10.131c0-7.88-8.922-7.593-11.018-3.714v-2.155z"/>
    </g>
</symbol>
<symbol id="footer__icon4" viewBox="0 0 24 24">
    <g>
        <path d="M19.615 3.184c-3.604-.246-11.631-.245-15.23 0-3.897.266-4.356 2.62-4.385 8.816.029 6.185.484 8.549 4.385 8.816 3.6.245 11.626.246 15.23 0 3.897-.266 4.356-2.62 4.385-8.816-.029-6.185-.484-8.549-4.385-8.816zm-10.615 12.816v-8l8 3.993-8 4.007z"/>
    </g>
</symbol>
<symbol id="footer__icon5" viewBox="0 0 24 24">
    <g>
        <path d="M12 0c-6.627 0-12 5.372-12 12 0 5.084 3.163 9.426 7.627 11.174-.105-.949-.2-2.405.042-3.441.218-.937 1.407-5.965 1.407-5.965s-.359-.719-.359-1.782c0-1.668.967-2.914 2.171-2.914 1.023 0 1.518.769 1.518 1.69 0 1.029-.655 2.568-.994 3.995-.283 1.194.599 2.169 1.777 2.169 2.133 0 3.772-2.249 3.772-5.495 0-2.873-2.064-4.882-5.012-4.882-3.414 0-5.418 2.561-5.418 5.207 0 1.031.397 2.138.893 2.738.098.119.112.224.083.345l-.333 1.36c-.053.22-.174.267-.402.161-1.499-.698-2.436-2.889-2.436-4.649 0-3.785 2.75-7.262 7.929-7.262 4.163 0 7.398 2.967 7.398 6.931 0 4.136-2.607 7.464-6.227 7.464-1.216 0-2.359-.631-2.75-1.378l-.748 2.853c-.271 1.043-1.002 2.35-1.492 3.146 1.124.347 2.317.535 3.554.535 6.627 0 12-5.373 12-12 0-6.628-5.373-12-12-12z" fill-rule="evenodd" clip-rule="evenodd"/>
    </g>
</symbol>
<symbol id="screen7__quotes" viewBox="0 0 24 24">
    <g>
        <path d="M14.017 21v-7.391c0-5.704 3.731-9.57 8.983-10.609l.995 2.151c-2.432.917-3.995 3.638-3.995 5.849h4v10h-9.983zm-14.017 0v-7.391c0-5.704 3.748-9.57 9-10.609l.996 2.151c-2.433.917-3.996 3.638-3.996 5.849h3.983v10h-9.983z"/>
    </g>
</symbol>
</svg>